<?xml version="1.0" encoding="UTF-8"?>
<svg id="Layer_2" data-name="Layer 2" xmlns="http://www.w3.org/2000/svg" viewBox="0 0 67.23 67.23">
  <defs>
    <style>
      .cls-1 {
        fill: #1c1c1c;
      }
    </style>
  </defs>
  <g id="Layer_6">
    <path class="cls-1" d="M0,0v67.23h67.23V0H0ZM53.32,49.63c.33.33.33.87,0,1.2l-2.51,2.51c-.33.33-.87.33-1.2,0l-16-16.01-16.01,16c-.33.33-.87.33-1.2,0l-2.51-2.51c-.33-.33-.33-.87,0-1.2l16.01-16-16-16.01c-.33-.33-.33-.87,0-1.2l2.51-2.51c.33-.33.87-.33,1.2,0l16,16.01,16.01-16c.33-.33.87-.33,1.2,0l2.51,2.51c.33.33.33.87,0,1.2l-16.01,16,16,16.01Z"/>
  </g>
</svg>
