<?xml version="1.0" encoding="UTF-8" standalone="no"?>
<!-- Created with Inkscape (http://www.inkscape.org/) -->

<svg
   width="164.04228mm"
   height="25.495407mm"
   viewBox="0 0 164.04228 25.495407"
   version="1.1"
   id="svg1"
   inkscape:version="1.3.2 (091e20ef0f, 2023-11-25, custom)"
   sodipodi:docname="logo.svg"
   xmlns:inkscape="http://www.inkscape.org/namespaces/inkscape"
   xmlns:sodipodi="http://sodipodi.sourceforge.net/DTD/sodipodi-0.dtd"
   xmlns="http://www.w3.org/2000/svg"
   xmlns:svg="http://www.w3.org/2000/svg">
  <sodipodi:namedview
     id="namedview1"
     pagecolor="#ffffff"
     bordercolor="#000000"
     borderopacity="0.25"
     inkscape:showpageshadow="2"
     inkscape:pageopacity="0.0"
     inkscape:pagecheckerboard="true"
     inkscape:deskcolor="#d1d1d1"
     inkscape:document-units="mm"
     inkscape:zoom="1.738945"
     inkscape:cx="361.42604"
     inkscape:cy="92.584872"
     inkscape:window-width="1918"
     inkscape:window-height="1078"
     inkscape:window-x="0"
     inkscape:window-y="0"
     inkscape:window-maximized="1"
     inkscape:current-layer="layer1" />
  <defs
     id="defs1" />
  <g
     inkscape:label="Layer 1"
     inkscape:groupmode="layer"
     id="layer1"
     transform="translate(-13.807371,-34.546974)">
    <path
       style="font-size:33.8667px;font-family:Lora;-inkscape-font-specification:Lora;fill:#ffffff;stroke-width:0"
       d="M 13.807371,59.368221 V 58.25062 q 1.286934,-0.06773 1.761068,-0.575734 0.474134,-0.541867 0.508,-1.456268 0.06773,-0.948267 0.06773,-2.133602 V 39.454602 q 0,-0.677334 0.03387,-1.286934 0.03387,-0.643468 0.06773,-1.151468 -0.609601,0.03387 -1.219201,0.06773 -0.609601,0.03387 -1.219201,0.06773 v -1.490135 h 7.620007 v 1.117601 q -1.253068,0.03387 -1.761068,0.575734 -0.474134,0.541867 -0.541868,1.456268 -0.03387,0.914401 -0.03387,2.133602 v 5.621872 h 12.124278 v -7.112007 q 0,-0.677334 0.03387,-1.286934 0.03387,-0.643468 0.06773,-1.151468 -0.6096,0.03387 -1.219201,0.06773 -0.609601,0.03387 -1.219201,0.06773 v -1.490135 h 7.620007 v 1.117601 q -1.253068,0.03387 -1.761068,0.575734 -0.474134,0.541867 -0.541867,1.456268 -0.03387,0.914401 -0.03387,2.133602 v 14.393347 q 0,0.914401 -0.03387,1.591735 0,0.643467 -0.06773,1.083734 0.6096,-0.03387 1.219201,-0.06773 0.6096,-0.03387 1.219201,-0.06773 v 1.490134 H 28.878052 V 58.25062 q 1.286934,-0.06773 1.761068,-0.575734 0.474134,-0.541867 0.508001,-1.456268 0.06773,-0.948267 0.06773,-2.133602 v -6.163739 l -12.124278,0.135467 v 7.28134 q 0,0.914401 -0.03387,1.591735 0,0.643467 -0.06773,1.083734 0.6096,-0.03387 1.219201,-0.06773 0.6096,-0.03387 1.219201,-0.06773 v 1.490134 z M 52.00903,50.596746 q 0,-1.490135 -0.4064,-2.133602 -0.406401,-0.643467 -1.286935,-0.778934 -0.880534,-0.135467 -2.336802,-0.06773 l -2.472269,0.1016 v 7.755474 q 0,0.914401 -0.03387,1.557868 0,0.643467 -0.06773,1.083734 l 6.468539,-0.1016 q 1.490135,-0.03387 2.573869,-0.474133 1.083735,-0.474134 1.693335,-1.625602 0.609601,-1.151468 0.609601,-3.149603 h 1.151468 l -0.203201,6.604006 H 40.223419 V 58.25062 q 1.286934,-0.06773 1.761068,-0.575734 0.474134,-0.541867 0.508001,-1.456268 0.06773,-0.948267 0.06773,-2.133602 V 39.454602 q 0,-0.677334 0.03387,-1.286934 0.03387,-0.643468 0.06773,-1.151468 -0.609601,0.03387 -1.219201,0.06773 -0.609601,0.03387 -1.219201,0.06773 v -1.490135 h 16.289882 l 0.169333,5.926672 h -1.117601 q 0,-1.998135 -0.6096,-3.014136 Q 54.345832,37.5242 53.295965,37.185533 52.279964,36.813 50.993029,36.846866 l -2.912536,0.06773 q -1.253068,0.03387 -1.794935,0.474133 -0.541867,0.440268 -0.677334,1.320802 -0.1016,0.846667 -0.1016,2.235202 v 5.418672 l 6.366939,0.03387 -0.237067,-2.912536 h 1.490135 v 7.112007 z m 9.279465,8.771475 V 58.25062 q 1.286935,-0.06773 1.761069,-0.575734 0.474134,-0.541867 0.508,-1.456268 0.06773,-0.948267 0.06773,-2.133602 V 39.454602 q 0,-0.677334 0.03387,-1.286934 0.03387,-0.643468 0.06773,-1.151468 -0.609601,0.03387 -1.219201,0.06773 -0.609601,0.03387 -1.219202,0.06773 v -1.490135 h 7.620008 v 1.117601 q -1.253068,0.03387 -1.761069,0.575734 -0.474133,0.541867 -0.541867,1.456268 -0.03387,0.914401 -0.03387,2.133602 v 14.528814 q 0,0.914401 -0.03387,1.557868 0,0.643467 -0.06773,1.083734 l 6.333073,-0.1016 q 2.133602,-0.03387 3.217337,-1.354668 1.117601,-1.320801 1.117601,-4.30107 h 1.151467 l -0.2032,7.010406 z m 19.574921,0 V 58.25062 q 1.286935,-0.06773 1.761068,-0.575734 0.474134,-0.541867 0.508001,-1.456268 0.06773,-0.948267 0.06773,-2.133602 V 39.454602 q 0,-0.677334 0.03387,-1.286934 0.03387,-0.643468 0.06773,-1.151468 -0.6096,0.03387 -1.219201,0.06773 -0.6096,0.03387 -1.219201,0.06773 v -1.490135 h 7.620007 v 1.117601 q -1.253067,0.03387 -1.761068,0.575734 -0.474134,0.541867 -0.541867,1.456268 -0.03387,0.914401 -0.03387,2.133602 v 14.528814 q 0,0.914401 -0.03387,1.557868 0,0.643467 -0.06773,1.083734 l 6.333073,-0.1016 q 2.133602,-0.03387 3.217336,-1.354668 1.117601,-1.320801 1.117601,-4.30107 h 1.151468 l -0.2032,7.010406 z m 18.084797,0 V 58.25062 q 1.016001,0 1.557867,-0.541867 0.54187,-0.541867 0.88054,-1.490135 0.37253,-0.948267 0.84666,-2.201335 l 6.97654,-18.999218 h 0.8128 l 7.55228,19.270151 q 0.27093,0.711201 0.6096,1.828802 0.33866,1.117601 0.27093,1.896535 0.57574,-0.03387 1.15147,-0.06773 0.57573,-0.03387 1.15147,-0.06773 v 1.490134 h -7.75548 V 58.25062 q 1.28694,-0.03387 1.69334,-0.575734 0.4064,-0.541867 0.3048,-1.286934 -0.1016,-0.745068 -0.33867,-1.354668 l -1.18533,-3.18347 -8.80535,0.2032 -1.18533,3.623737 q -0.23707,0.812801 -0.44027,1.286935 -0.16933,0.474133 -0.4064,1.049867 0.67734,-0.03387 1.3208,-0.06773 0.67734,-0.03387 1.32081,-0.06773 v 1.490134 z m 6.231477,-8.771475 h 7.8232 l -2.40453,-6.468539 q -0.37254,-1.049868 -0.77894,-2.065869 -0.37253,-1.049868 -0.74506,-2.099735 h -0.0677 q -0.33866,0.948267 -0.7112,1.896535 -0.33867,0.948267 -0.7112,1.930402 z m 30.34454,-7.755474 q -0.1016,-1.625601 -0.77893,-3.08187 -0.67734,-1.456268 -1.96427,-2.370669 -1.28693,-0.9144 -3.28507,-0.9144 -2.09973,0 -3.21734,1.185334 -1.1176,1.185335 -1.1176,2.777069 0,1.422402 0.8128,2.404536 0.8128,0.948268 2.09974,1.693335 1.3208,0.711201 2.77707,1.388535 1.28693,0.575734 2.57387,1.253068 1.28693,0.643467 2.3368,1.490134 1.04987,0.846668 1.65947,2.032002 0.64347,1.151468 0.64347,2.77707 0,1.862668 -0.94827,3.318936 -0.9144,1.456268 -2.67547,2.302936 -1.76107,0.8128 -4.30107,0.8128 -1.524,0 -3.14961,-0.440267 -1.6256,-0.440267 -2.87866,-1.286934 l 0.16933,1.456268 h -1.76107 l -0.2032,-7.213607 h 1.3208 q 0.16933,2.980269 2.06587,4.538138 1.89654,1.524001 4.572,1.524001 1.32081,0 2.43841,-0.474134 1.1176,-0.508 1.76107,-1.456268 0.67733,-0.948267 0.67733,-2.302935 0,-1.524002 -0.8128,-2.540003 -0.8128,-1.016001 -2.09974,-1.761068 -1.28693,-0.745067 -2.7432,-1.422401 -1.28693,-0.575734 -2.54,-1.219202 -1.25307,-0.643467 -2.30294,-1.456268 -1.016,-0.846667 -1.65947,-1.998135 -0.6096,-1.151468 -0.6096,-2.777069 0,-0.880534 0.3048,-1.896535 0.3048,-1.016001 1.04987,-1.930402 0.77894,-0.948268 2.09974,-1.524002 1.35466,-0.6096 3.42053,-0.6096 1.28694,0 2.87867,0.372533 1.6256,0.338667 3.01414,1.354668 l -0.13547,-1.456268 h 1.7272 v 7.450674 z"
       id="text1"
       aria-label="HELLAS" />
    <path
       style="font-size:35.2778px;font-family:Arial;-inkscape-font-specification:Arial;fill:#ffffff;stroke:#ffffff;stroke-width:0"
       d="m 170.87433,59.612299 h -3.46232 l -6.68349,-17.087685 -1.44694,-4.289147 -1.44694,4.289147 -6.71795,17.087685 h -3.46232 l 9.90466,-24.270714 h 3.41064 z m 3.42787,0.01723 V 35.35881 h 3.29007 v 24.270714 z"
       id="text4"
       aria-label="ΛΙ" />
    <path
       style="font-weight:800;font-size:23.5806px;font-family:Inter;-inkscape-font-specification:'Inter Ultra-Bold';fill:#ff0000;stroke:#000000;stroke-width:0"
       d="m 142.79734,59.427513 q -0.90437,0 -1.54915,-0.636408 -0.63641,-0.636408 -0.62804,-1.540778 -0.008,-0.887622 0.62804,-1.515656 0.64478,-0.636409 1.54915,-0.636409 0.85413,0 1.50728,0.636409 0.66153,0.628034 0.66991,1.515656 -0.008,0.602913 -0.31821,1.096967 -0.30145,0.494054 -0.79551,0.787137 -0.48568,0.293082 -1.06347,0.293082 z"
       id="text3"
       aria-label="." />
  </g>
</svg>
