<?xml version="1.0" encoding="UTF-8"?>
<svg id="Layer_1" xmlns="http://www.w3.org/2000/svg" version="1.1" viewBox="0 0 19.2 4.9">
  <!-- Generator: Adobe Illustrator 29.4.0, SVG Export Plug-In . SVG Version: 2.1.0 Build 152)  -->
  <defs>
    <style>
      .st0 {
        fill: #1c1c1c;
      }
    </style>
  </defs>
  <polyline class="st0" points=".7 2.7 2.1 2.7 2.1 3.6 2.8 3.6 2.8 2.7 2.8 2.2 2.8 1.3 2.1 1.3 2.1 2.2 .7 2.2 .7 1.3 0 1.3 0 2.2 0 2.7 0 3.6 .7 3.6 .7 2.7"/>
  <path class="st0" d="M17.1,2.8s0,0,0,0c0,0,0,.1.1.2,0,0,.2,0,.2,0,.3,0,.6,0,.9,0,0,0,.1,0,.2,0,0,0,0,0,0-.1,0,0,0,0,0-.1,0,0,0-.1,0-.1,0,0-.1,0-.2,0-.2,0-.4,0-.5,0-.3,0-.5,0-.8,0,0,0-.2,0-.2,0-.1,0-.2-.2-.3-.3,0-.2,0-.4,0-.6,0-.2.1-.3.3-.3.1,0,.3,0,.4,0,.4,0,.8,0,1.3,0,.2,0,.3,0,.5,0,.2,0,.3.2.3.4,0,0,0,.2,0,.2h-.7s0,0,0,0c0,0,0-.1-.1-.1,0,0-.2,0-.3,0-.3,0-.5,0-.8,0,0,0-.1,0-.2,0,0,0,0,0,0,0,0,0,0,0,0,0,0,.1,0,.2.2.2.1,0,.2,0,.3,0,.3,0,.5,0,.8,0,.2,0,.3,0,.5,0,.3,0,.4.2.4.4,0,.2,0,.4,0,.5,0,.2-.1.3-.3.3-.1,0-.3,0-.4,0-.4,0-.9,0-1.3,0-.1,0-.3,0-.4,0-.2,0-.3-.2-.3-.4,0,0,0-.2,0-.3h.7Z"/>
  <path class="st0" d="M4.4,1.8v.4h1.5v.5h-1.5v.4h1.9v.5h-2.5V1.3h2.5v.5h-1.9Z"/>
  <path class="st0" d="M15.9,3.6c-.2,0-.5,0-.7,0,0,0,0,0,0,0,0-.1-.1-.2-.2-.3,0,0,0,0,0,0-.5,0-.9,0-1.4,0,0,0,0,0,0,0,0,.1-.1.2-.2.3,0,0,0,0,0,0-.2,0-.5,0-.7,0,0,0,0,0,0,0,.4-.7.8-1.5,1.2-2.2,0,0,0,0,0,0,.3,0,.5,0,.8,0,0,0,0,0,0,0,.4.7.8,1.5,1.2,2.2,0,0,0,0,0,0ZM14.7,2.7c-.2-.3-.3-.6-.5-.9,0,0,0,0,0,0-.2.3-.3.6-.5.9h1Z"/>
  <path class="st0" d="M9.3,3.1v.5h-2.2V1.3h.7v1.8h1.5Z"/>
  <path class="st0" d="M10,1.3h.7v1.8h1.5v.5h-2.2V1.3Z"/>
</svg>