<?xml version="1.0" encoding="UTF-8"?>
<svg id="Layer_1" xmlns="http://www.w3.org/2000/svg" version="1.1" viewBox="0 0 4.5 4.9">
  <!-- Generator: Adobe Illustrator 29.4.0, SVG Export Plug-In . SVG Version: 2.1.0 Build 152)  -->
  <defs>
    <style>
      .st0 {
        fill: #1c1c1c;
      }
    </style>
  </defs>
  <path class="st0" d="M3.6.8v1.4h.5s0,0,0,0v.4c0,0,0,0,0,0h-.5v1.4s0,0,0,0h.7s0,0,0,0v.5s0,0,0,0h-.3c0,0-.2,0-.2,0l-.8-.8c0,0-.2-.2-.2-.3v-.9h-1.5v.9c0,.1,0,.3-.2.3l-.8.8c0,0-.1,0-.2,0H0c0,0,0,0,0,0v-.5s0,0,0,0h.7c0,0,0,0,0,0v-1.4h-.5s0,0,0,0v-.4s0,0,0,0h.5V.8c0,0,0,0,0,0H0C0,.7,0,.6,0,.6V0C0,0,0,0,0,0h.3C.5,0,.6,0,.6,0l.8.8c0,0,.2.2.2.4v.9h1.5v-.9c0-.1,0-.3.2-.4L3.9,0c0,0,.1,0,.2,0h.3s0,0,0,0v.5s0,0,0,0h-.7c0,0,0,0,0,0Z"/>
</svg>