<?xml version="1.0" encoding="UTF-8"?>
<svg id="Layer_2" data-name="Layer 2" xmlns="http://www.w3.org/2000/svg" viewBox="0 0 352.61 67.21">
  <defs>
    <style>
      .cls-1 {
        fill: #1c1c1c;
      }
    </style>
  </defs>
  <g id="Layer_6">
    <g>
      <path class="cls-1" d="M62.11,8.06V1.19c0-.66-.53-1.19-1.19-1.19h-4.46c-1.06,0-2.07.42-2.82,1.17l-10.41,11.64c-1.29,1.29-2.02,3.05-2.02,4.88v12.21h-20.29v-12.21c0-1.83-.73-3.59-2.02-4.88L8.48,1.17c-.75-.75-1.76-1.17-2.82-1.17H1.19C.53,0,0,.53,0,1.19v6.87c0,.66.53,1.19,1.19,1.19h9.27c.66,0,1.19.53,1.19,1.19v19.45h-6.51c-.66,0-1.19.53-1.19,1.19v5.01c0,.66.53,1.19,1.19,1.19h6.51v19.45c0,.66-.53,1.19-1.19,1.19H1.19c-.66,0-1.19.53-1.19,1.19v6.87c0,.66.53,1.19,1.19,1.19h4.46c1.06,0,2.07-.42,2.82-1.17l10.41-11.64c1.29-1.29,2.02-3.05,2.02-4.88v-12.21h20.29v12.21c0,1.83.73,3.59,2.02,4.88l10.41,11.64c.75.75,1.76,1.17,2.82,1.17h4.46c.66,0,1.19-.53,1.19-1.19v-6.87c0-.66-.53-1.19-1.19-1.19h-9.27c-.66,0-1.19-.53-1.19-1.19v-19.45h6.51c.66,0,1.19-.53,1.19-1.19v-5.01c0-.66-.53-1.19-1.19-1.19h-6.51V10.45c0-.66.53-1.19,1.19-1.19h9.27c.66,0,1.19-.53,1.19-1.19Z"/>
      <polyline class="cls-1" points="96.33 37.3 116.62 37.3 116.62 49.51 125.88 49.51 125.88 37.3 125.88 29.9 125.88 17.69 116.62 17.69 116.62 29.9 96.33 29.9 96.33 17.69 87.07 17.69 87.07 29.9 87.07 37.3 87.07 49.51 96.33 49.51 96.33 37.3"/>
      <g>
        <path class="cls-1" d="M322.76,39.15c0,.41-.01.78,0,1.14.06,1.21.54,1.92,1.71,2.21,1.07.26,2.19.47,3.29.48,3.94.03,7.89-.02,11.83-.1.81-.02,1.63-.26,2.43-.48.73-.2,1.14-.76,1.21-1.51.05-.56.04-1.13,0-1.7-.06-.83-.53-1.43-1.33-1.61-1.02-.23-2.06-.44-3.1-.49-2.45-.1-4.9-.11-7.34-.14-3.56-.04-7.13-.05-10.65-.62-1.13-.18-2.26-.47-3.34-.85-2.05-.72-3.26-2.21-3.58-4.36-.41-2.76-.47-5.52.14-8.26.48-2.13,1.85-3.49,3.86-4.25,1.78-.67,3.64-.95,5.52-1.08,5.8-.4,11.61-.36,17.41.01,2.18.14,4.34.44,6.43,1.14,2.7.9,4.08,2.79,4.26,5.58.07,1.12.01,2.25.01,3.41h-9.25c-.02-.38-.05-.74-.07-1.1-.04-.96-.51-1.67-1.43-1.88-1.23-.28-2.5-.56-3.76-.58-3.52-.05-7.04.02-10.56.1-.79.02-1.59.25-2.37.47-.65.19-1.03.69-1.12,1.38-.02.18-.06.36-.07.54-.14,2.06.39,2.72,2.45,2.92,1.39.13,2.78.22,4.18.25,3.48.07,6.96.02,10.44.16,2.26.09,4.53.31,6.74.72,3.73.69,5.25,2.36,5.69,6.12.29,2.45.31,4.92-.26,7.36-.5,2.16-1.86,3.54-3.87,4.33-1.98.78-4.07,1.07-6.17,1.21-6.15.42-12.3.38-18.44-.03-1.92-.13-3.85-.49-5.73-.95-2.79-.68-4.23-2.61-4.43-5.46-.09-1.35-.13-2.7-.19-4.09h9.43Z"/>
        <path class="cls-1" d="M148.02,24.65v5.74h20.68v6.42h-20.68v5.73h25.61v6.98h-35v-31.86h35v6.99h-25.62Z"/>
        <path class="cls-1" d="M307.07,49.57c-3.36,0-6.62,0-9.88-.02-.19,0-.45-.23-.55-.41-.85-1.59-1.67-3.18-2.48-4.79-.17-.34-.35-.5-.77-.5-6.37.02-12.75.02-19.12,0-.42,0-.6.15-.77.5-.8,1.61-1.61,3.21-2.45,4.81-.1.19-.37.4-.56.4-3.22.02-6.43.02-9.76.02.12-.23.2-.39.29-.56,5.59-10.3,11.18-20.61,16.76-30.91.19-.35.39-.48.79-.48,3.52.02,7.04.02,10.56,0,.38,0,.61.09.81.45,5.62,10.33,11.25,20.66,16.88,30.98.08.14.14.28.26.51ZM290.45,37.15c-2.21-4.32-4.4-8.59-6.58-12.85-.06,0-.13,0-.19,0-2.17,4.27-4.34,8.53-6.53,12.85h13.3Z"/>
        <path class="cls-1" d="M216.02,42.53v7h-29.77v-31.87h9.41v24.86h20.36Z"/>
        <path class="cls-1" d="M225.04,17.66h9.42v24.88h20.35v6.98h-29.77v-31.86Z"/>
      </g>
    </g>
  </g>
</svg>
