<?xml version="1.0" encoding="UTF-8"?>
<svg id="Layer_2" data-name="Layer 2" xmlns="http://www.w3.org/2000/svg" xmlns:xlink="http://www.w3.org/1999/xlink" viewBox="0 0 765.59 580.6">
  <defs>
    <style>
      .cls-1 {
        fill: url(#radial-gradient-2);
      }

      .cls-1, .cls-2, .cls-3 {
        stroke: #767c8a;
        stroke-miterlimit: 10;
      }

      .cls-4 {
        isolation: isolate;
      }

      .cls-2 {
        fill: url(#radial-gradient);
      }

      .cls-3 {
        fill: #767c8a;
      }
    </style>
    <radialGradient id="radial-gradient" cx="501.27" cy="212.81" fx="501.27" fy="212.81" r="562.27" gradientUnits="userSpaceOnUse">
      <stop offset="0" stop-color="#ffffa6"/>
      <stop offset="1" stop-color="#fae023"/>
    </radialGradient>
    <radialGradient id="radial-gradient-2" cy="212.81" fy="212.81" r="562.27" xlink:href="#radial-gradient"/>
  </defs>
  <g id="DATA">
    <g>
      <polygon class="cls-3" points="3.61 95.01 12.48 75.46 19.09 76.81 18.8 109.8 3.61 95.01"/>
      <g>
        <g>
          <path class="cls-3" d="M504.23,220.77c3.7,1.12,7.16,4.03,7.7,6.5l5.69,25.7c.55,2.47-2.02,3.56-5.72,2.44l-38.15-11.55c-3.7-1.12-6.26-.03-5.71,2.44l16.13,72.83,43.45,13.16c3.7,1.12,7.14,4.03,7.69,6.5l4.16,18.77c.55,2.47-2.01,3.56-5.71,2.44l-43.45-13.16,16.13,72.83c.55,2.47,3.98,5.38,7.69,6.5l38.15,11.55c3.7,1.12,7.16,4.03,7.7,6.5l5.69,25.7c.55,2.47-2.02,3.56-5.72,2.44l-11.19-3.39c-5.94-1.8-11.98-5.09-16.82-9.17l-68.05-61.27c-8.35-7.04-13.88-14.86-15.4-21.71l-10.12-45.71-113.87-34.48,10.12,45.71c1.52,6.85-1.11,12.19-7.29,14.84l-48.75,25.9c-3.58,1.53-8.92,1.37-14.86-.42l-11.21-3.39c-3.7-1.12-7.14-4.03-7.69-6.5l-5.69-25.7c-.55-2.47,2.01-3.56,5.71-2.44l38.16,11.56c3.7,1.12,6.26.03,5.71-2.44l-16.13-72.83-43.45-13.16c-3.7-1.12-7.14-4.03-7.69-6.5l-4.16-18.77c-.55-2.47,2.01-3.56,5.71-2.44l43.45,13.16-16.13-72.83c-.55-2.47-3.98-5.38-7.69-6.5l-38.16-11.56c-3.7-1.12-7.14-4.03-7.69-6.5l-5.69-25.7c-.55-2.47,2.01-3.56,5.71-2.44l11.21,3.39c5.94,1.8,11.98,5.09,16.8,9.16l68.06,61.28c8.33,7.04,13.87,14.85,15.39,21.7l10.12,45.71,113.87,34.48-10.12-45.71c-1.52-6.85,1.11-12.19,7.31-14.83l48.73-25.91c3.59-1.52,8.94-1.37,14.88.43l11.19,3.39Z"/>
          <path class="cls-3" d="M684.26,281.9c21.11,17.84,34.85,37.22,38.69,54.56l32.24,145.54c3.84,17.35-2.66,30.6-18.35,37.29l-131.46,56.2c-15.66,6.71-38.62,6.05-64.63-1.82l-218.15-66.06c-26-7.87-51.95-22.03-73.05-39.87l-177.06-149.63c-21.1-17.83-34.84-37.21-38.68-54.56L1.58,118.01c-3.84-17.35,2.66-30.6,18.33-37.29L151.38,24.52c15.66-6.71,38.62-6.05,64.63,1.82l218.15,66.06c26,7.87,51.94,22.03,73.05,39.86l177.05,149.63ZM715.01,469.84l-32.24-145.54c-2.24-10.11-10.41-21.64-22.71-32.03l-177.07-149.64c-12.3-10.39-27.73-18.82-42.89-23.41L221.95,53.15c-15.16-4.59-28.82-4.98-37.95-1.07L52.53,108.28c-9.13,3.9-13,11.79-10.76,21.9l32.24,145.54c2.24,10.11,10.41,21.64,22.71,32.03l177.07,149.64c12.3,10.39,27.74,18.82,42.89,23.41l218.15,66.06c15.16,4.59,28.82,4.98,37.95,1.07l131.47-56.2c9.13-3.9,13-11.79,10.76-21.9"/>
        </g>
        <polyline class="cls-3" points="199.91 110.69 235.78 128.93 283.81 171.11 343.04 331.12 334.17 350.67 254.55 359.22 239.29 345.51 248.16 325.97 289.09 339.61 307.88 341.01 292.67 262.65 217.53 240.75 226.4 221.2 269.28 237.09 258.41 182.1 246.7 167.61 202.18 146.01 191.15 128.7 200.02 109.16"/>
        <polygon class="cls-3" points="422.83 248.8 431.7 229.26 488.84 207.22 526.36 234.95 517.49 254.49 467.9 238.5 474.51 313.02 548.2 339.57 539.33 359.12 501.96 340.22 467.42 340.21 509.75 403.26 574.41 451.91 565.54 471.46 514.23 434.62 469.81 384.19 422.83 248.8"/>
        <polygon class="cls-3" points="753.5 504.36 762.37 484.81 757.56 462.62 732.01 480.31 731.43 501.37 753.5 504.36"/>
        <g class="cls-4">
          <path class="cls-2" d="M693.08,262.48c21.1,17.83,34.85,37.22,38.69,54.56l32.24,145.54c3.84,17.35-2.68,30.58-18.35,37.29l-131.47,56.19c-15.67,6.7-38.61,6.06-64.61-1.82l-218.17-66.07c-26-7.87-51.94-22.04-73.04-39.87l-177.06-149.63c-21.1-17.84-34.85-37.22-38.69-54.56L10.38,98.58c-3.84-17.35,2.68-30.59,18.35-37.29L160.2,5.09c15.67-6.7,38.61-6.05,64.61,1.83l218.17,66.07c26,7.87,51.94,22.03,73.04,39.86l177.07,149.64ZM723.83,450.42l-32.24-145.54c-2.24-10.11-10.41-21.64-22.73-32.04l-177.05-149.63c-12.31-10.4-27.73-18.82-42.89-23.41L230.75,33.73c-15.16-4.59-28.8-4.97-37.95-1.07L61.35,88.86c-9.15,3.9-13.02,11.78-10.78,21.89l32.24,145.54c2.24,10.11,10.41,21.64,22.73,32.04l177.05,149.62c12.32,10.41,27.74,18.83,42.89,23.42l218.17,66.07c15.16,4.59,28.8,4.97,37.94,1.06l131.46-56.2c9.15-3.9,13.02-11.78,10.78-21.89"/>
          <path class="cls-1" d="M513.05,201.34c3.7,1.12,7.14,4.04,7.69,6.51l5.69,25.69c.55,2.47-2,3.57-5.71,2.45l-38.15-11.55c-3.7-1.12-6.27-.04-5.72,2.44l16.13,72.83,43.45,13.16c3.7,1.12,7.16,4.03,7.7,6.5l4.16,18.77c.55,2.47-2.02,3.56-5.72,2.44l-43.45-13.16,16.13,72.83c.55,2.47,4,5.38,7.7,6.5l38.15,11.55c3.7,1.12,7.14,4.03,7.69,6.5l5.69,25.7c.55,2.47-2.01,3.56-5.71,2.44l-11.21-3.39c-5.94-1.8-11.98-5.09-16.8-9.16l-68.06-61.28c-8.33-7.04-13.87-14.85-15.39-21.7l-10.12-45.71-113.87-34.48,10.12,45.71c1.52,6.85-1.11,12.19-7.29,14.84l-48.75,25.9c-3.58,1.53-8.92,1.37-14.86-.42l-11.21-3.39c-3.7-1.12-7.14-4.03-7.69-6.5l-5.69-25.7c-.55-2.47,2.01-3.56,5.71-2.44l38.15,11.55c3.7,1.12,6.27.04,5.72-2.44l-16.13-72.83-43.45-13.16c-3.7-1.12-7.16-4.03-7.7-6.5l-4.16-18.77c-.55-2.47,2.02-3.56,5.72-2.44l43.45,13.16-16.13-72.83c-.55-2.47-4-5.38-7.7-6.5l-38.15-11.55c-3.7-1.12-7.14-4.04-7.69-6.51l-5.69-25.69c-.55-2.47,2-3.57,5.71-2.45l11.21,3.39c5.94,1.8,11.98,5.1,16.8,9.18l68.06,61.27c8.33,7.05,13.87,14.85,15.39,21.7l10.13,45.72,113.87,34.48-10.13-45.72c-1.52-6.85,1.11-12.18,7.29-14.84l48.75-25.89c3.58-1.53,8.92-1.39,14.86.41l11.21,3.39Z"/>
        </g>
      </g>
    </g>
  </g>
</svg>