<?xml version="1.0" encoding="UTF-8"?>
<svg id="Layer_2" data-name="Layer 2" xmlns="http://www.w3.org/2000/svg" viewBox="0 0 84.98 84.98">
  <defs>
    <style>
      .cls-1 {
        fill: #9ea3ad;
      }

      .cls-2 {
        fill: none;
        stroke: #9ea3ad;
        stroke-miterlimit: 10;
      }
    </style>
  </defs>
  <g id="DATA">
    <rect class="cls-2" x=".5" y=".5" width="83.98" height="83.98" transform="translate(0 84.98) rotate(-90)"/>
    <g>
      <path class="cls-1" d="M63.75,44.16l-2.01,2.01c-.45.45-1.17.45-1.61,0l-16.83-16.83c-.45-.45-1.17-.45-1.61,0l-16.83,16.83c-.45.45-1.17.45-1.61,0l-2.01-2.01c-.45-.45-.45-1.17,0-1.61l20.45-20.45c.45-.45,1.17-.45,1.61,0l20.45,20.45c.45.45.45,1.17,0,1.61Z"/>
      <rect class="cls-1" x="39.93" y="24.91" width="5.12" height="38.31" rx="1.14" ry="1.14"/>
    </g>
  </g>
</svg>