<?xml version="1.0" encoding="UTF-8"?>
<svg id="Layer_2" data-name="Layer 2" xmlns="http://www.w3.org/2000/svg" viewBox="0 0 82.5 82.5">
  <defs>
    <style>
      .cls-1 {
        fill: #9ea3ad;
      }
    </style>
  </defs>
  <g id="IMG">
    <path class="cls-1" d="M41.25,0C18.47,0,0,18.47,0,41.25s18.47,41.25,41.25,41.25,41.25-18.47,41.25-41.25S64.03,0,41.25,0ZM64.75,23.93c-.13,1.88-1.21,8.45-2.28,15.55-1.61,10.06-3.35,21.05-3.35,21.05,0,0-.27,3.08-2.55,3.62-2.28.54-6.03-1.88-6.7-2.41-.54-.4-10.06-6.43-13.54-9.38-.94-.8-2.01-2.41.13-4.29,4.83-4.42,10.59-9.92,14.08-13.41,1.61-1.61,3.22-5.36-3.49-.8-9.52,6.57-18.9,12.74-18.9,12.74,0,0-2.15,1.34-6.17.13-4.02-1.21-8.71-2.82-8.71-2.82,0,0-3.22-2.01,2.28-4.16,0,0,23.19-9.52,31.24-12.87,3.08-1.34,13.54-5.63,13.54-5.63,0,0,4.83-1.88,4.42,2.68Z"/>
  </g>
</svg>