<?xml version="1.0" encoding="UTF-8"?>
<svg id="Layer_2" data-name="Layer 2" xmlns="http://www.w3.org/2000/svg" viewBox="0 0 181.78 181.78">
  <defs>
    <style>
      .cls-1 {
        fill: #fae023;
      }
    </style>
  </defs>
  <g id="Layer_1-2">
    <g>
      <path class="cls-1" d="M70.43,79.34c-6.19,0-11.07,5.69-11.07,12.61s4.99,12.6,11.07,12.6,11.08-5.68,11.07-12.6c.11-6.93-4.88-12.61-11.07-12.61Z"/>
      <path class="cls-1" d="M111.35,79.34c-6.19,0-11.07,5.69-11.07,12.61s4.99,12.6,11.07,12.6,11.07-5.68,11.07-12.6c.11-6.93-4.88-12.61-11.07-12.61Z"/>
      <path class="cls-1" d="M90.89,0C40.69,0,0,40.69,0,90.89s40.69,90.89,90.89,90.89,90.89-40.69,90.89-90.89S141.09,0,90.89,0ZM151.95,118.9c-10.67,7.98-21.01,12.81-31.18,15.98-2.52-3.45-4.75-7.13-6.67-10.99,3.67-1.39,7.2-3.12,10.53-5.13-.87-.65-1.73-1.34-2.58-2.04-20.02,9.48-42.04,9.48-62.31,0-.83.7-1.7,1.38-2.58,2.04,3.32,2,6.84,3.72,10.51,5.12-1.93,3.87-4.17,7.54-6.67,10.99-10.16-3.17-20.5-8-31.16-15.97-2.18-23.36,2.18-47.06,18.26-71.36,7.97-3.74,16.51-6.46,25.43-8,1.1,1.98,2.41,4.64,3.29,6.76,9.3-1.42,18.69-1.42,28.16,0,.88-2.12,2.16-4.78,3.25-6.76,8.91,1.54,17.44,4.26,25.41,7.99,13.94,20.82,20.87,44.29,18.31,71.38Z"/>
    </g>
  </g>
</svg>
