<?xml version="1.0" encoding="UTF-8"?>
<svg id="Layer_2" data-name="Layer 2" xmlns="http://www.w3.org/2000/svg" viewBox="0 0 108.88 108.88">
  <defs>
    <style>
      .cls-1 {
        fill: #eaeef4;
      }
    </style>
  </defs>
  <g id="MENU">
    <g>
      <path class="cls-1" d="M66.7,47.52c-3.71,0-6.63,3.41-6.63,7.55s2.99,7.54,6.63,7.54,6.63-3.4,6.63-7.54c.06-4.15-2.92-7.55-6.63-7.55Z"/>
      <path class="cls-1" d="M54.44,0C24.37,0,0,24.37,0,54.44s24.37,54.44,54.44,54.44,54.44-24.37,54.44-54.44S84.51,0,54.44,0ZM91.01,71.22c-6.39,4.78-12.59,7.67-18.68,9.57-1.51-2.07-2.84-4.27-4-6.58,2.2-.84,4.31-1.87,6.31-3.07-.52-.39-1.04-.8-1.54-1.22-11.99,5.68-25.18,5.68-37.32,0-.5.42-1.02.83-1.54,1.22,1.99,1.2,4.1,2.23,6.3,3.06-1.15,2.32-2.49,4.52-4,6.58-6.09-1.9-12.28-4.79-18.67-9.57-1.31-13.99,1.31-28.19,10.94-42.74,4.78-2.24,9.89-3.87,15.23-4.79.66,1.19,1.44,2.78,1.97,4.05,5.57-.85,11.19-.85,16.87,0,.53-1.27,1.29-2.86,1.95-4.05,5.34.92,10.44,2.55,15.22,4.78,8.35,12.47,12.5,26.53,10.97,42.75Z"/>
      <path class="cls-1" d="M42.19,47.52c-3.71,0-6.63,3.41-6.63,7.55s2.99,7.54,6.63,7.54,6.64-3.4,6.63-7.54c.06-4.15-2.92-7.55-6.63-7.55Z"/>
    </g>
  </g>
</svg>