<?xml version="1.0" encoding="UTF-8"?>
<svg id="Layer_2" data-name="Layer 2" xmlns="http://www.w3.org/2000/svg" xmlns:xlink="http://www.w3.org/1999/xlink" viewBox="0 0 482.26 373.32">
  <defs>
    <style>
      .cls-1 {
        fill: url(#radial-gradient);
      }

      .cls-2 {
        fill: #eaeef4;
      }
    </style>
    <radialGradient id="radial-gradient" cx="417.43" cy="4.18" fx="417.43" fy="4.18" r="460.99" gradientUnits="userSpaceOnUse">
      <stop offset="0" stop-color="#d5e1f7"/>
      <stop offset="1" stop-color="#767c8a"/>
    </radialGradient>
  </defs>
  <g id="IMG">
    <g>
      <rect class="cls-2" x="94.84" y="147.69" width="301.21" height="135.87"/>
      <path class="cls-1" d="M408.52,31.27c-31.22-14.61-64.6-25.22-99.49-31.27-4.29,7.75-9.29,18.17-12.74,26.46-37.1-5.58-73.85-5.58-110.27,0-3.45-8.29-8.57-18.71-12.9-26.46-34.93,6.04-68.35,16.7-99.57,31.34C10.58,126.49-6.49,219.28,2.05,310.75c41.76,31.19,82.24,50.13,122.02,62.53,9.82-13.52,18.59-27.89,26.13-43.04-14.38-5.46-28.14-12.2-41.15-20.03,3.45-2.56,6.83-5.23,10.09-7.98,79.35,37.12,165.57,37.12,243.97,0,3.3,2.75,6.68,5.42,10.09,7.98-13.05,7.86-26.86,14.61-41.23,20.07,7.55,15.11,16.27,29.52,26.13,43.04,39.83-12.4,80.34-31.34,122.1-62.57,10.01-106.04-17.11-197.97-71.69-279.48ZM161.02,254.5c-23.82,0-43.36-22.24-43.36-49.32s19.12-49.36,43.36-49.36,43.77,22.24,43.36,49.36c.04,27.08-19.12,49.32-43.36,49.32ZM321.24,254.5c-23.82,0-43.36-22.24-43.36-49.32s19.12-49.36,43.36-49.36,43.77,22.24,43.36,49.36c0,27.08-19.12,49.32-43.36,49.32Z"/>
    </g>
  </g>
</svg>