<?xml version="1.0" encoding="UTF-8"?>
<svg id="Layer_2" data-name="Layer 2" xmlns="http://www.w3.org/2000/svg" viewBox="0 0 82.5 82.5">
  <defs>
    <style>
      .cls-1 {
        fill: #9ea3ad;
      }
    </style>
  </defs>
  <g id="IMG">
    <g>
      <path class="cls-1" d="M31.97,36.01c-2.81,0-5.03,2.58-5.03,5.72s2.26,5.72,5.03,5.72,5.03-2.58,5.03-5.72c.05-3.14-2.22-5.72-5.03-5.72Z"/>
      <path class="cls-1" d="M50.54,36.01c-2.81,0-5.03,2.58-5.03,5.72s2.26,5.72,5.03,5.72,5.03-2.58,5.03-5.72c.05-3.14-2.22-5.72-5.03-5.72Z"/>
      <path class="cls-1" d="M41.25,0C18.47,0,0,18.47,0,41.25s18.47,41.25,41.25,41.25,41.25-18.47,41.25-41.25S64.03,0,41.25,0ZM68.96,53.97c-4.84,3.62-9.54,5.82-14.15,7.25-1.14-1.57-2.15-3.24-3.03-4.99,1.67-.63,3.27-1.42,4.78-2.33-.4-.3-.79-.61-1.17-.92-9.09,4.3-19.08,4.3-28.28,0-.38.32-.77.63-1.17.92,1.51.91,3.1,1.69,4.77,2.32-.87,1.76-1.89,3.42-3.03,4.99-4.61-1.44-9.3-3.63-14.14-7.25-.99-10.6.99-21.36,8.29-32.39,3.62-1.7,7.49-2.93,11.54-3.63.5.9,1.09,2.11,1.49,3.07,4.22-.65,8.48-.65,12.78,0,.4-.96.98-2.17,1.48-3.07,4.04.7,7.91,1.93,11.53,3.62,6.33,9.45,9.47,20.1,8.31,32.4Z"/>
    </g>
  </g>
</svg>