<?xml version="1.0" encoding="UTF-8"?>
<svg id="Layer_2" data-name="Layer 2" xmlns="http://www.w3.org/2000/svg" viewBox="0 0 181.78 181.78">
  <defs>
    <style>
      .cls-1 {
        fill: #fae023;
      }
    </style>
  </defs>
  <g id="Layer_1-2">
    <path class="cls-1" d="M90.89,0C40.69,0,0,40.69,0,90.89s40.69,90.89,90.89,90.89,90.89-40.69,90.89-90.89S141.09,0,90.89,0ZM142.67,52.72c-.3,4.14-2.66,18.61-5.02,34.27-3.55,22.16-7.39,46.38-7.39,46.38,0,0-.59,6.79-5.61,7.98-5.02,1.18-13.29-4.13-14.77-5.32-1.18-.89-22.16-14.18-29.84-20.68-2.07-1.77-4.43-5.32.3-9.45,10.63-9.75,23.34-21.86,31.02-29.54,3.54-3.54,7.09-11.81-7.68-1.77-20.97,14.47-41.65,28.06-41.65,28.06,0,0-4.73,2.95-13.59.29-8.86-2.66-19.2-6.2-19.2-6.2,0,0-7.09-4.43,5.02-9.16,0,0,51.1-20.97,68.83-28.36,6.79-2.95,29.84-12.41,29.84-12.41,0,0,10.63-4.14,9.75,5.91Z"/>
  </g>
</svg>
