<?xml version="1.0" encoding="UTF-8"?>
<svg id="Layer_2" data-name="Layer 2" xmlns="http://www.w3.org/2000/svg" viewBox="0 0 327.2 62.36">
  <defs>
    <style>
      .cls-1 {
        fill: #767c8a;
      }

      .cls-2 {
        opacity: .5;
      }
    </style>
  </defs>
  <g id="IMG">
    <g class="cls-2">
      <path class="cls-1" d="M57.64,7.48V1.11c0-.61-.5-1.11-1.11-1.11h-4.14c-.98,0-1.92.39-2.62,1.08l-9.66,10.8c-1.2,1.2-1.88,2.83-1.88,4.53v11.33h-18.83v-11.33c0-1.7-.67-3.33-1.88-4.53L7.87,1.08c-.69-.69-1.64-1.08-2.62-1.08H1.11C.5,0,0,.5,0,1.11v6.37c0,.61.5,1.11,1.11,1.11h8.6c.61,0,1.11.5,1.11,1.11v18.05h-6.04c-.61,0-1.11.5-1.11,1.11v4.65c0,.61.5,1.11,1.11,1.11h6.04v18.05c0,.61-.5,1.11-1.11,1.11H1.11c-.61,0-1.11.5-1.11,1.11v6.37c0,.61.5,1.11,1.11,1.11h4.14c.98,0,1.92-.39,2.62-1.08l9.66-10.8c1.2-1.2,1.88-2.83,1.88-4.53v-11.33h18.83v11.33c0,1.7.67,3.33,1.88,4.53l9.66,10.8c.69.69,1.64,1.08,2.62,1.08h4.14c.61,0,1.11-.5,1.11-1.11v-6.37c0-.61-.5-1.11-1.11-1.11h-8.6c-.61,0-1.11-.5-1.11-1.11v-18.05h6.04c.61,0,1.11-.5,1.11-1.11v-4.65c0-.61-.5-1.11-1.11-1.11h-6.04V9.7c0-.61.5-1.11,1.11-1.11h8.6c.61,0,1.11-.5,1.11-1.11Z"/>
      <polyline class="cls-1" points="89.39 34.62 108.22 34.62 108.22 45.95 116.81 45.95 116.81 34.62 116.81 27.75 116.81 16.42 108.22 16.42 108.22 27.75 89.39 27.75 89.39 16.42 80.8 16.42 80.8 27.75 80.8 34.62 80.8 45.95 89.39 45.95 89.39 34.62"/>
      <g>
        <path class="cls-1" d="M299.51,36.33c0,.38-.01.72,0,1.06.05,1.12.5,1.78,1.59,2.05,1,.24,2.03.44,3.05.45,3.66.02,7.32-.02,10.98-.09.75-.02,1.51-.24,2.25-.44.68-.19,1.06-.7,1.12-1.41.04-.52.04-1.05,0-1.57-.06-.77-.49-1.33-1.24-1.5-.95-.21-1.91-.41-2.88-.45-2.27-.1-4.54-.1-6.81-.13-3.3-.04-6.61-.05-9.89-.57-1.05-.17-2.09-.44-3.1-.79-1.9-.66-3.02-2.06-3.32-4.04-.38-2.56-.44-5.13.13-7.67.45-1.98,1.72-3.24,3.58-3.94,1.65-.62,3.38-.88,5.12-1,5.38-.38,10.77-.33,16.16.01,2.02.13,4.03.41,5.97,1.06,2.5.84,3.79,2.59,3.96,5.18.07,1.04.01,2.09.01,3.17h-8.59c-.02-.35-.05-.69-.06-1.02-.04-.89-.47-1.55-1.33-1.74-1.15-.26-2.32-.52-3.49-.54-3.27-.04-6.53.02-9.8.09-.74.02-1.48.23-2.19.43-.6.17-.95.64-1.04,1.28-.02.17-.06.33-.07.5-.13,1.91.36,2.53,2.27,2.71,1.29.13,2.58.2,3.88.23,3.23.06,6.46.01,9.69.15,2.09.09,4.2.29,6.26.67,3.47.64,4.87,2.19,5.28,5.68.27,2.28.29,4.57-.24,6.83-.46,2-1.72,3.28-3.59,4.02-1.84.72-3.77.99-5.72,1.12-5.7.39-11.41.35-17.11-.03-1.78-.12-3.57-.45-5.31-.88-2.59-.63-3.92-2.43-4.11-5.06-.09-1.25-.12-2.5-.17-3.8h8.75Z"/>
        <path class="cls-1" d="M137.35,22.87v5.33h19.19v5.95h-19.19v5.32h23.77v6.47h-32.48v-29.56h32.48v6.49h-23.77Z"/>
        <path class="cls-1" d="M284.95,46c-3.12,0-6.14,0-9.17-.02-.17,0-.42-.21-.51-.38-.78-1.47-1.55-2.96-2.3-4.45-.16-.32-.33-.47-.72-.47-5.91.02-11.83.02-17.74,0-.39,0-.56.14-.72.46-.74,1.5-1.5,2.98-2.27,4.46-.09.17-.34.37-.52.37-2.98.02-5.97.02-9.06.02.11-.21.18-.37.26-.52,5.18-9.56,10.37-19.12,15.55-28.69.17-.32.36-.44.73-.44,3.27.02,6.53.02,9.8,0,.36,0,.57.08.75.42,5.21,9.59,10.44,19.17,15.67,28.75.07.13.13.26.24.47ZM269.52,34.47c-2.05-4.01-4.08-7.97-6.1-11.92-.06,0-.12,0-.17,0-2.01,3.96-4.03,7.92-6.06,11.92h12.34Z"/>
        <path class="cls-1" d="M200.46,39.47v6.5h-27.63v-29.57h8.73v23.07h18.9Z"/>
        <path class="cls-1" d="M208.83,16.38h8.74v23.09h18.89v6.48h-27.63v-29.57Z"/>
      </g>
    </g>
  </g>
</svg>