<?xml version="1.0" encoding="UTF-8"?>
<svg id="Layer_2" data-name="Layer 2" xmlns="http://www.w3.org/2000/svg" viewBox="0 0 108.88 108.88">
  <defs>
    <style>
      .cls-1 {
        fill: #eaeef4;
      }
    </style>
  </defs>
  <g id="MENU">
    <path class="cls-1" d="M54.44,0C24.37,0,0,24.37,0,54.44s24.37,54.44,54.44,54.44,54.44-24.37,54.44-54.44S84.51,0,54.44,0ZM85.46,31.58c-.18,2.48-1.59,11.15-3.01,20.53-2.12,13.27-4.42,27.78-4.42,27.78,0,0-.35,4.07-3.36,4.78-3.01.71-7.96-2.48-8.85-3.19-.71-.53-13.27-8.49-17.87-12.39-1.24-1.06-2.65-3.18.18-5.66,6.37-5.84,13.98-13.09,18.58-17.69,2.12-2.12,4.25-7.08-4.6-1.06-12.56,8.67-24.95,16.81-24.95,16.81,0,0-2.83,1.77-8.14.18-5.31-1.59-11.5-3.72-11.5-3.72,0,0-4.25-2.65,3.01-5.49,0,0,30.61-12.56,41.23-16.99,4.07-1.77,17.87-7.43,17.87-7.43,0,0,6.37-2.48,5.84,3.54Z"/>
  </g>
</svg>